<?xml version="1.0" encoding="UTF-8"?>
<!DOCTYPE svg PUBLIC "-//W3C//DTD SVG 1.1//EN" "http://www.w3.org/Graphics/SVG/1.1/DTD/svg11.dtd">
<!-- Creator: CorelDRAW X5 -->
<svg xmlns="http://www.w3.org/2000/svg" xml:space="preserve" width="200mm" height="200mm" style="shape-rendering:geometricPrecision; text-rendering:geometricPrecision; image-rendering:optimizeQuality; fill-rule:evenodd; clip-rule:evenodd"
viewBox="0 0 20000 20000"
 xmlns:xlink="http://www.w3.org/1999/xlink"
 enable-background="new 0 0 32 32"
 version="1.1"
 xmlns:cc="http://creativecommons.org/ns#"
 xmlns:dc="http://purl.org/dc/elements/1.1/"
 xmlns:inkscape="http://www.inkscape.org/namespaces/inkscape"
 xmlns:rdf="http://www.w3.org/1999/02/22-rdf-syntax-ns#"
 xmlns:sodipodi="http://sodipodi.sourceforge.net/DTD/sodipodi-0.dtd"
 xmlns:svg="http://www.w3.org/2000/svg">
 <defs>
  <style type="text/css">
   <![CDATA[
    .fil0 {fill:none}
    .fil1 {fill:black}
   ]]>
  </style>
 </defs>
 <g id="Vrstva_x0020_1">
  <metadata id="CorelCorpID_0Corel-Layer"/>
  <g id="_229870400">
   <rect class="fil0" x="654" y="494" width="18775" height="18775"/>
   <path class="fil1" d="M18255 10672l0 -3138 -1173 0 0 -1173 1173 0 0 -4694 -16428 0 0 4694 1173 0 0 1173 -1173 0 0 4694 1173 0 0 1173 -1173 0 0 4694 9005 0c907,732 2059,1173 3316,1173 2916,-1 5279,-2364 5280,-5280 0,-1257 -441,-2409 -1173,-3316zm-9353 2729l-4728 0 0 -1173 5000 0c-132,374 -227,766 -272,1173zm7006 -5867l-11734 0 0 -1173 11734 0 0 1173zm-12907 -3520l2347 0 0 1173 -2347 0 0 -1173zm0 5867l2347 0 0 1173 -2347 0 0 -1173zm2347 7040l-2347 0 0 -1173 2347 0 0 1173zm8801 1105c-2230,-5 -4034,-1809 -4040,-4038 5,-2230 1809,-4034 4040,-4040 2229,5 4033,1809 4038,4040 -5,2229 -1809,4033 -4038,4038z"/>
   <path id="path2229" class="fil1" d="M14151 11274l-961 1c-448,0 -777,360 -777,751l0 2774c0,379 297,691 595,739l-895 1343 516 0 640 -938 876 0 1 0 1 0 876 0 640 938 516 0 -895 -1343c299,-48 595,-360 595,-739l0 -2774c0,-392 -329,-751 -777,-751l-954 -1zm-381 161l376 0 1 0 1 0 376 0c68,0 127,57 127,125l0 221c0,68 -56,126 -127,126l-376 0 -1 0 -1 0 -376 0c-71,0 -127,-58 -127,-126l0 -221c0,-68 59,-125 127,-125zm-555 622l931 0 2 0 931 0c253,0 387,181 387,389l0 499c2,240 -173,387 -387,387l-931 0 -1 0 -1 0 -931 0c-214,0 -389,-147 -387,-387l0 -499c0,-208 134,-389 387,-389zm-42 2396c188,0 341,152 341,341 0,188 -152,341 -341,341 -188,0 -341,-152 -341,-341 0,-188 152,-341 341,-341zm1939 0c188,0 341,152 341,341 0,188 -153,341 -341,341 -188,0 -341,-152 -341,-341 0,-188 152,-341 341,-341z"/>
   <path id="path2233" class="fil1" d="M13861 11194c-119,0 -215,-96 -215,-215 0,-119 96,-215 215,-215 119,0 215,96 215,215 0,119 -96,215 -215,215z"/>
   <path id="path2235" class="fil1" d="M14433 11194c119,0 215,-96 215,-215 0,-119 -96,-215 -215,-215 -119,0 -215,96 -215,215 0,119 96,215 215,215z"/>
  </g>
 </g>
</svg>
